<svg aria-hidden="true" style="position: absolute; width: 0; height: 0; overflow: hidden;" version="1.1" xmlns="http://www.w3.org/2000/svg" xmlns:xlink="http://www.w3.org/1999/xlink">
<defs>
<svg id='icon-logo' xmlns="http://www.w3.org/2000/svg" width="87" height="60" viewBox="0 0 87 60" fill="none">
  <g clip-path="url(#clip0_164_163)">
    <path d="M8.63631 45.8651H0.117676V49.5977H8.63631V45.8651Z" fill="#EF8A21" style="fill:#EF8A21;fill:color(display-p3 0.9373 0.5412 0.1294);fill-opacity:1;"/>
    <path d="M18.3601 45.8651H9.84143V49.5977H18.3601V45.8651Z" fill="#EF8A21" style="fill:#EF8A21;fill:color(display-p3 0.9373 0.5412 0.1294);fill-opacity:1;"/>
    <path d="M28.0767 45.8651H19.5581V49.5977H28.0767V45.8651Z" fill="#EF8A21" style="fill:#EF8A21;fill:color(display-p3 0.9373 0.5412 0.1294);fill-opacity:1;"/>
    <path d="M37.8005 45.8651H29.2819V49.5977H37.8005V45.8651Z" fill="#EF8A21" style="fill:#EF8A21;fill:color(display-p3 0.9373 0.5412 0.1294);fill-opacity:1;"/>
    <path d="M47.5242 45.8651H39.0056V49.5977H47.5242V45.8651Z" fill="#EF8A21" style="fill:#EF8A21;fill:color(display-p3 0.9373 0.5412 0.1294);fill-opacity:1;"/>
    <path d="M57.2479 45.8651H48.7292V49.5977H57.2479V45.8651Z" fill="#EF8A21" style="fill:#EF8A21;fill:color(display-p3 0.9373 0.5412 0.1294);fill-opacity:1;"/>
    <path d="M66.9716 45.8651H58.453V49.5977H66.9716V45.8651Z" fill="#EF8A21" style="fill:#EF8A21;fill:color(display-p3 0.9373 0.5412 0.1294);fill-opacity:1;"/>
    <path d="M76.6953 45.8651H68.1766V49.5977H76.6953V45.8651Z" fill="#EF8A21" style="fill:#EF8A21;fill:color(display-p3 0.9373 0.5412 0.1294);fill-opacity:1;"/>
    <path d="M86.419 45.8651H77.9004V49.5977H86.419V45.8651Z" fill="#EF8A21" style="fill:#EF8A21;fill:color(display-p3 0.9373 0.5412 0.1294);fill-opacity:1;"/>
    <path d="M3.63594 50.8116H0.117676V54.5442H3.63594V50.8116Z" fill="#EF8A21" style="fill:#EF8A21;fill:color(display-p3 0.9373 0.5412 0.1294);fill-opacity:1;"/>
    <path d="M13.3597 50.8116H4.84106V54.5442H13.3597V50.8116Z" fill="#EF8A21" style="fill:#EF8A21;fill:color(display-p3 0.9373 0.5412 0.1294);fill-opacity:1;"/>
    <path d="M23.0764 50.8116H14.5577V54.5442H23.0764V50.8116Z" fill="#EF8A21" style="fill:#EF8A21;fill:color(display-p3 0.9373 0.5412 0.1294);fill-opacity:1;"/>
    <path d="M32.8001 50.8116H24.2815V54.5442H32.8001V50.8116Z" fill="#EF8A21" style="fill:#EF8A21;fill:color(display-p3 0.9373 0.5412 0.1294);fill-opacity:1;"/>
    <path d="M42.5239 50.8116H34.0052V54.5442H42.5239V50.8116Z" fill="#EF8A21" style="fill:#EF8A21;fill:color(display-p3 0.9373 0.5412 0.1294);fill-opacity:1;"/>
    <path d="M52.2475 50.8116H43.7289V54.5442H52.2475V50.8116Z" fill="#EF8A21" style="fill:#EF8A21;fill:color(display-p3 0.9373 0.5412 0.1294);fill-opacity:1;"/>
    <path d="M61.9713 50.8116H53.4526V54.5442H61.9713V50.8116Z" fill="#EF8A21" style="fill:#EF8A21;fill:color(display-p3 0.9373 0.5412 0.1294);fill-opacity:1;"/>
    <path d="M71.6949 50.8116H63.1763V54.5442H71.6949V50.8116Z" fill="#EF8A21" style="fill:#EF8A21;fill:color(display-p3 0.9373 0.5412 0.1294);fill-opacity:1;"/>
    <path d="M81.4187 50.8116H72.9V54.5442H81.4187V50.8116Z" fill="#EF8A21" style="fill:#EF8A21;fill:color(display-p3 0.9373 0.5412 0.1294);fill-opacity:1;"/>
    <path d="M86.4189 50.8116H82.6237V54.5442H86.4189V50.8116Z" fill="#EF8A21" style="fill:#EF8A21;fill:color(display-p3 0.9373 0.5412 0.1294);fill-opacity:1;"/>
    <path d="M8.63631 55.7581H0.117676V59.4907H8.63631V55.7581Z" fill="#EF8A21" style="fill:#EF8A21;fill:color(display-p3 0.9373 0.5412 0.1294);fill-opacity:1;"/>
    <path d="M18.3601 55.7581H9.84143V59.4907H18.3601V55.7581Z" fill="#EF8A21" style="fill:#EF8A21;fill:color(display-p3 0.9373 0.5412 0.1294);fill-opacity:1;"/>
    <path d="M28.0767 55.7581H19.5581V59.4907H28.0767V55.7581Z" fill="#EF8A21" style="fill:#EF8A21;fill:color(display-p3 0.9373 0.5412 0.1294);fill-opacity:1;"/>
    <path d="M37.8005 55.7581H29.2819V59.4907H37.8005V55.7581Z" fill="#EF8A21" style="fill:#EF8A21;fill:color(display-p3 0.9373 0.5412 0.1294);fill-opacity:1;"/>
    <path d="M47.5242 55.7581H39.0056V59.4907H47.5242V55.7581Z" fill="#EF8A21" style="fill:#EF8A21;fill:color(display-p3 0.9373 0.5412 0.1294);fill-opacity:1;"/>
    <path d="M57.2479 55.7581H48.7292V59.4907H57.2479V55.7581Z" fill="#EF8A21" style="fill:#EF8A21;fill:color(display-p3 0.9373 0.5412 0.1294);fill-opacity:1;"/>
    <path d="M66.9716 55.7581H58.453V59.4907H66.9716V55.7581Z" fill="#EF8A21" style="fill:#EF8A21;fill:color(display-p3 0.9373 0.5412 0.1294);fill-opacity:1;"/>
    <path d="M76.6953 55.7581H68.1766V59.4907H76.6953V55.7581Z" fill="#EF8A21" style="fill:#EF8A21;fill:color(display-p3 0.9373 0.5412 0.1294);fill-opacity:1;"/>
    <path d="M86.419 55.7581H77.9004V59.4907H86.419V55.7581Z" fill="#EF8A21" style="fill:#EF8A21;fill:color(display-p3 0.9373 0.5412 0.1294);fill-opacity:1;"/>
    <path d="M46.2222 1.50002L43.2649 0.446533L40.3145 1.50002L0.117676 15.7814V19.0047L43.2649 3.67677L86.419 19.0047V15.7814L46.2222 1.50002Z" fill="#EF8A21" style="fill:#EF8A21;fill:color(display-p3 0.9373 0.5412 0.1294);fill-opacity:1;"/>
    <path d="M11.6006 23.8326L8.46322 30.8163L5.31202 23.8326H1.28125L6.49631 33.893V41.0372H9.98687V33.893L15.2089 23.8326H11.6006Z" fill="white" style="fill:white;fill-opacity:1;"/>
    <path d="M23.6236 38.7698V32.7698C23.6236 31.4443 23.2358 30.4256 22.4462 29.7001C21.6636 28.9745 20.5347 28.6117 19.0665 28.6117C17.5982 28.6117 16.4347 28.9745 15.5898 29.707C14.7448 30.4396 14.2808 31.3675 14.2046 32.4768H17.3143C17.3766 32.0163 17.5428 31.6675 17.7991 31.4373C18.0623 31.207 18.4224 31.0884 18.8795 31.0884C19.3574 31.0884 19.7106 31.214 19.9461 31.4722C20.1815 31.7303 20.2993 32.114 20.2993 32.6443V33.1745L17.5982 34.0745C16.3516 34.4442 15.4166 34.9396 14.8141 35.5675C14.2046 36.1954 13.8999 37.0117 13.8999 38.0163C13.8999 39.021 14.1977 39.8094 14.8002 40.3954C15.4028 40.9745 16.1785 41.2675 17.1273 41.2675C17.9653 41.2675 18.6717 41.0791 19.2535 40.6954C19.7452 40.3745 20.1261 39.8931 20.417 39.2722C20.4239 39.5303 20.4378 39.7815 20.4655 40.0047C20.507 40.3745 20.5694 40.7163 20.6663 41.0303H23.963C23.8383 40.6326 23.7483 40.2489 23.6998 39.8722C23.6513 39.5094 23.6236 39.1396 23.6236 38.7698ZM18.5055 38.7698C18.1246 38.7698 17.8199 38.6722 17.5913 38.4698C17.3628 38.2675 17.245 37.9815 17.245 37.5977C17.245 37.1861 17.3697 36.8373 17.6259 36.5582C17.8753 36.2791 18.2908 36.0419 18.8587 35.8536L20.3062 35.4419V37.3326C20.3062 37.7303 20.133 38.0722 19.7868 38.3512C19.4335 38.6303 19.0111 38.7698 18.5055 38.7698Z" fill="white" style="fill:white;fill-opacity:1;"/>
    <path d="M32.9941 28.6117C32.0314 28.6117 31.2142 28.8559 30.5493 29.3373C30.0368 29.714 29.6143 30.2094 29.2888 30.8233V28.8489H25.9922V41.0373H29.3858V33.7047C29.3858 33.2442 29.4758 32.8396 29.649 32.4977C29.8221 32.1559 30.0714 31.8838 30.3969 31.6745C30.7225 31.4652 31.0895 31.3605 31.4981 31.3605C31.9899 31.3605 32.3569 31.4861 32.6132 31.7443C32.8625 32.0024 32.9941 32.4001 32.9941 32.9373V41.0373H36.4085V32.2256C36.4085 31.1094 36.1107 30.2303 35.522 29.5884C34.9333 28.9396 34.0883 28.6117 32.9941 28.6117Z" fill="white" style="fill:white;fill-opacity:1;"/>
    <path d="M47.8914 29.3651C47.2265 28.8628 46.437 28.6116 45.5158 28.6116C44.6155 28.6116 43.8329 28.8489 43.168 29.3303C42.6832 29.6791 42.3369 30.1256 42.1222 30.6768V23.8326H38.7286V41.0372H42.0045V39.1675C42.2053 39.7116 42.5239 40.1651 42.988 40.521C43.6459 41.0233 44.4285 41.2744 45.3496 41.2744C46.2846 41.2744 47.0949 41.0093 47.7805 40.4861C48.4662 39.9628 49.0064 39.2093 49.3942 38.2396C49.7821 37.2698 49.976 36.1256 49.976 34.821C49.976 33.5442 49.7959 32.4419 49.4289 31.514C49.0687 30.5861 48.5562 29.8675 47.8914 29.3651ZM45.8552 37.6256C45.4604 38.2326 44.9272 38.5326 44.2623 38.5326C43.5974 38.5326 43.0641 38.2396 42.6624 37.6465C42.2608 37.0535 42.0599 36.1675 42.0599 34.9675C42.0599 33.7744 42.2608 32.8744 42.6624 32.2675C43.0641 31.6605 43.5905 31.3605 44.2415 31.3605C44.9202 31.3605 45.4604 31.6535 45.8552 32.2326C46.25 32.8116 46.4508 33.7047 46.4508 34.8977C46.4439 36.1116 46.25 37.0186 45.8552 37.6256Z" fill="white" style="fill:white;fill-opacity:1;"/>
    <path d="M58.4946 36.1884C58.4946 36.6349 58.4046 37.0326 58.2314 37.3814C58.0583 37.7303 57.8228 38.0093 57.532 38.2186C57.2411 38.4279 56.8879 38.5326 56.4792 38.5326C56.0498 38.5326 55.7174 38.407 55.4681 38.1489C55.2188 37.8907 55.101 37.507 55.101 36.9768V28.8558H51.6866V37.7442C51.6866 38.4419 51.8182 39.0628 52.0814 39.593C52.3446 40.1303 52.7186 40.5419 53.2172 40.8349C53.7159 41.1279 54.3046 41.2744 54.9833 41.2744C55.9183 41.2744 56.7078 41.0303 57.3657 40.5349C57.8782 40.1512 58.2661 39.621 58.5847 39.021V41.0372H61.909V28.8558H58.4946V36.1884Z" fill="white" style="fill:white;fill-opacity:1;"/>
    <path d="M67.4911 28.8558H64.0975V41.0442H67.4911V28.8558Z" fill="white" style="fill:white;fill-opacity:1;"/>
    <path d="M67.6088 23.5954H64.0005V27.3H67.6088V23.5954Z" fill="white" style="fill:white;fill-opacity:1;"/>
    <path d="M73.3503 23.8326H69.9567V41.0372H73.3503V23.8326Z" fill="white" style="fill:white;fill-opacity:1;"/>
    <path d="M83.0046 23.8326V30.4396C82.8038 30.014 82.5268 29.6512 82.1528 29.3582C81.5018 28.8558 80.7192 28.6047 79.805 28.6047C78.87 28.6047 78.0597 28.8698 77.3602 29.393C76.6607 29.9163 76.1274 30.6628 75.7465 31.6256C75.3656 32.5884 75.1786 33.7326 75.1786 35.0582C75.1786 36.3349 75.3587 37.4372 75.7257 38.3651C76.0859 39.3 76.6053 40.0116 77.2771 40.514C77.9489 41.0163 78.7523 41.2675 79.6872 41.2675C80.6014 41.2675 81.3979 41.0233 82.0697 40.5419C82.5406 40.2 82.88 39.7605 83.1016 39.2442V41.0372H86.4259V23.8326H83.0046ZM82.4921 37.6256C82.0904 38.2326 81.5572 38.5326 80.8923 38.5326C80.2274 38.5326 79.6942 38.2396 79.2925 37.6465C78.8908 37.0535 78.6899 36.1744 78.6899 34.9954C78.6899 33.7814 78.8977 32.8744 79.3063 32.2675C79.7149 31.6605 80.2482 31.3605 80.8923 31.3605C81.5572 31.3605 82.0904 31.6535 82.4921 32.2465C82.8938 32.8396 83.0947 33.7256 83.0947 34.9256C83.0947 36.1186 82.8938 37.0186 82.4921 37.6256Z" fill="white" style="fill:white;fill-opacity:1;"/>
  </g>
  <defs>
    <clipPath id="clip0_164_163">
      <rect width="86.5714" height="60" fill="white" style="fill:white;fill-opacity:1;"/>
    </clipPath>
  </defs>
</svg>
<symbol id="icon-heart-svg" viewBox="0 0 34 32">
<path d="M3.775 18.775l11.294 10.544c0.469 0.438 1.088 0.681 1.731 0.681s1.263-0.244 1.731-0.681l11.294-10.544c1.9-1.769 2.975-4.25 2.975-6.844v-0.363c0-4.369-3.156-8.094-7.463-8.813-2.85-0.475-5.75 0.456-7.787 2.494l-0.75 0.75-0.75-0.75c-2.037-2.038-4.937-2.969-7.787-2.494-4.306 0.719-7.463 4.444-7.463 8.813v0.363c0 2.594 1.075 5.075 2.975 6.844z"></path>
</symbol>
<symbol id="icon-house-svg" viewBox="0 0 24 32">
<path d="M3 0c-1.656 0-3 1.344-3 3v26c0 1.656 1.344 3 3 3h6v-5c0-1.656 1.344-3 3-3s3 1.344 3 3v5h6c1.656 0 3-1.344 3-3v-26c0-1.656-1.344-3-3-3h-18zM4 15c0-0.55 0.45-1 1-1h2c0.55 0 1 0.45 1 1v2c0 0.55-0.45 1-1 1h-2c-0.55 0-1-0.45-1-1v-2zM11 14h2c0.55 0 1 0.45 1 1v2c0 0.55-0.45 1-1 1h-2c-0.55 0-1-0.45-1-1v-2c0-0.55 0.45-1 1-1zM16 15c0-0.55 0.45-1 1-1h2c0.55 0 1 0.45 1 1v2c0 0.55-0.45 1-1 1h-2c-0.55 0-1-0.45-1-1v-2zM5 6h2c0.55 0 1 0.45 1 1v2c0 0.55-0.45 1-1 1h-2c-0.55 0-1-0.45-1-1v-2c0-0.55 0.45-1 1-1zM10 7c0-0.55 0.45-1 1-1h2c0.55 0 1 0.45 1 1v2c0 0.55-0.45 1-1 1h-2c-0.55 0-1-0.45-1-1v-2zM17 6h2c0.55 0 1 0.45 1 1v2c0 0.55-0.45 1-1 1h-2c-0.55 0-1-0.45-1-1v-2c0-0.55 0.45-1 1-1z"></path>
</symbol>
<symbol id="icon-check-svg" viewBox="0 0 29 32">
<path d="M27.412 6.588c0.781 0.781 0.781 2.050 0 2.831l-16 16c-0.781 0.781-2.050 0.781-2.831 0l-8-8c-0.781-0.781-0.781-2.050 0-2.831s2.050-0.781 2.831 0l6.587 6.581 14.588-14.581c0.781-0.781 2.050-0.781 2.831 0h-0.006z"></path>
</symbol>
<symbol id="icon-oclock-header" viewBox="0 0 34 32">
<path fill="#fff" style="fill: var(--color2, #fff)" d="M16.914 0c4.244 0 8.313 1.686 11.314 4.686s4.686 7.070 4.686 11.314c0 4.244-1.686 8.313-4.686 11.314s-7.070 4.686-11.314 4.686c-4.244 0-8.313-1.686-11.314-4.686s-4.686-7.070-4.686-11.314c0-4.243 1.686-8.313 4.686-11.314s7.070-4.686 11.314-4.686zM15.414 7.5v8.5c0 0.5 0.25 0.969 0.669 1.25l6 4c0.687 0.463 1.619 0.275 2.081-0.419s0.275-1.619-0.419-2.081l-5.331-3.55v-7.7c0-0.831-0.669-1.5-1.5-1.5s-1.5 0.669-1.5 1.5z"></path>
</symbol>
<symbol id="icon-phone-header" viewBox="0 0 34 32">
<path fill="#fff" style="fill: var(--color2, #fff)" d="M11.22 1.538c-0.481-1.163-1.75-1.781-2.963-1.45l-5.5 1.5c-1.087 0.3-1.844 1.288-1.844 2.413 0 15.463 12.537 28 28 28 1.125 0 2.112-0.756 2.412-1.844l1.5-5.5c0.331-1.212-0.288-2.481-1.45-2.963l-6-2.5c-1.019-0.425-2.2-0.131-2.894 0.725l-2.525 3.081c-4.4-2.081-7.962-5.644-10.044-10.044l3.081-2.519c0.856-0.7 1.15-1.875 0.725-2.894l-2.5-6v-0.006z"></path>
</symbol>
</defs>
<symbol id="icon-facebook" viewBox="0 0 32 32">
<path fill="#fff" style="fill: var(--color1, #fff)" d="M32 16c0-8.838-7.163-16-16-16s-16 7.162-16 16c0 7.5 5.169 13.8 12.137 15.531v-10.644h-3.3v-4.888h3.3v-2.106c0-5.444 2.463-7.969 7.813-7.969 1.012 0 2.762 0.2 3.481 0.4v4.425c-0.375-0.037-1.031-0.063-1.85-0.063-2.625 0-3.638 0.994-3.638 3.575v1.738h5.225l-0.9 4.888h-4.331v10.994c7.925-0.956 14.063-7.7 14.063-15.881z"></path>
</symbol>
<symbol id="icon-arrow-down" viewBox="0 0 32 32">
<path fill="#fff" style="fill: var(--color1, #fff)" d="M14.431 30.903c0.868 0.868 2.278 0.868 3.146 0l11.111-11.111c0.868-0.868 0.868-2.278 0-3.146s-2.278-0.868-3.146 0l-7.319 7.326v-21.306c0-1.229-0.993-2.222-2.222-2.222s-2.222 0.993-2.222 2.222v21.299l-7.319-7.313c-0.868-0.868-2.278-0.868-3.146 0s-0.868 2.278 0 3.146l11.111 11.111 0.007-0.007z"></path>
</symbol>
<symbol id="icon-layer-group-icon" viewBox="0 0 37 32">
<path d="M16.902 0.325c0.931-0.431 2.006-0.431 2.937 0l13.663 6.312c0.531 0.244 0.869 0.775 0.869 1.362s-0.337 1.119-0.869 1.363l-13.663 6.312c-0.931 0.431-2.006 0.431-2.937 0l-13.662-6.312c-0.531-0.25-0.869-0.781-0.869-1.363s0.337-1.119 0.869-1.362l13.662-6.312zM30.177 13.1l3.325 1.537c0.531 0.244 0.869 0.775 0.869 1.362s-0.337 1.119-0.869 1.363l-13.663 6.312c-0.931 0.431-2.006 0.431-2.937 0l-13.662-6.312c-0.531-0.25-0.869-0.781-0.869-1.363s0.337-1.119 0.869-1.363l3.325-1.537 9.5 4.388c1.463 0.675 3.15 0.675 4.613 0l9.5-4.387zM20.677 25.488l9.5-4.387 3.325 1.537c0.531 0.244 0.869 0.775 0.869 1.363s-0.337 1.119-0.869 1.363l-13.663 6.312c-0.931 0.431-2.006 0.431-2.937 0l-13.662-6.312c-0.531-0.25-0.869-0.781-0.869-1.363s0.337-1.119 0.869-1.363l3.325-1.537 9.5 4.387c1.463 0.675 3.15 0.675 4.613 0z"></path>
</symbol>
<symbol id="icon-solid-hammer" viewBox="0 0 37 32">
<path d="M26.214 14.844c-1.762 0.3-3.637-0.225-5-1.588l-2.381-2.381c-0.938-0.938-1.463-2.2-1.463-3.525v-0.756l-4.981-2.719c-0.331-0.181-0.537-0.538-0.519-0.919s0.244-0.719 0.594-0.875l2.95-1.313c1.15-0.506 2.394-0.769 3.656-0.769h1.131c2.294 0 4.5 0.875 6.169 2.444l2.788 2.625c1.513 1.425 2.075 3.481 1.663 5.375l0.988 0.994 0.5-0.5c0.587-0.588 1.538-0.588 2.119 0l1.5 1.5c0.587 0.588 0.587 1.537 0 2.119l-5.5 5.5c-0.587 0.587-1.537 0.587-2.119 0l-1.5-1.5c-0.587-0.587-0.587-1.538 0-2.119l0.5-0.5-1.094-1.094zM2.083 23.569l14.594-12.156c0.219 0.306 0.469 0.6 0.737 0.875l2.381 2.381c0.375 0.375 0.775 0.7 1.2 0.981l-12.194 14.637c-0.906 1.087-2.25 1.712-3.662 1.712-2.638 0-4.769-2.137-4.769-4.769 0-1.413 0.631-2.756 1.712-3.662z"></path>
</symbol>
<symbol id="icon-diamond-solid" viewBox="0 0 32 32">
<path d="M17.769 0.731c-0.975-0.975-2.556-0.975-3.538 0l-13.5 13.5c-0.975 0.975-0.975 2.556 0 3.538l13.5 13.5c0.975 0.975 2.556 0.975 3.538 0l13.5-13.5c0.975-0.975 0.975-2.556 0-3.538l-13.5-13.5z"></path>
</symbol>
<symbol id="icon-circle-arrow-up-solid" viewBox="0 0 32 32">
<path d="M16 32c4.243 0 8.313-1.686 11.314-4.686s4.686-7.070 4.686-11.314c0-4.243-1.686-8.313-4.686-11.314s-7.070-4.686-11.314-4.686c-4.243 0-8.313 1.686-11.314 4.686s-4.686 7.070-4.686 11.314c0 4.243 1.686 8.313 4.686 11.314s7.070 4.686 11.314 4.686zM24.063 14.438c0.587 0.588 0.587 1.537 0 2.119s-1.538 0.587-2.119 0l-4.438-4.438v11.381c0 0.831-0.669 1.5-1.5 1.5s-1.5-0.669-1.5-1.5v-11.381l-4.438 4.437c-0.588 0.587-1.537 0.587-2.119 0s-0.588-1.538 0-2.119l6.987-7c0.588-0.588 1.538-0.588 2.119 0l7.006 7z"></path>
</symbol>
<symbol id="icon-clip-path-group" viewBox="0 0 82 32">
<path fill="#fff" style="fill: var(--color1, #fff)" opacity="0.14" d="M54.965 21.1l26.775-9.456-4.112-11.643-26.775 9.456 4.112 11.643z"></path>
<path fill="#fff" style="fill: var(--color1, #fff)" opacity="0.14" d="M24.403 31.894l26.775-9.456-4.112-11.643-26.775 9.456 4.112 11.643z"></path>
<path fill="#fff" style="fill: var(--color1, #fff)" opacity="0.14" d="M4.112 21.707l26.775-9.456-4.112-11.643-26.775 9.456 4.112 11.643z"></path>
</symbol>
<symbol id="icon-group-restangle" viewBox="0 0 73 32">
<path fill="#fff" style="fill: var(--color1, #fff)" opacity="0.14" d="M51.338 25.032l15.891-5.612-2.441-6.91-15.891 5.612 2.441 6.91z"></path>
<path fill="#fff" style="fill: var(--color1, #fff)" opacity="0.14" d="M33.2 31.438l15.891-5.612-2.44-6.91-15.891 5.612 2.44 6.91z"></path>
<path fill="#fff" style="fill: var(--color1, #fff)" opacity="0.14" d="M56.914 12.764l15.891-5.612-2.44-6.91-15.891 5.612 2.44 6.91z"></path>
<path fill="#fff" style="fill: var(--color1, #fff)" opacity="0.14" d="M38.776 19.171l15.891-5.612-2.441-6.91-15.891 5.612 2.441 6.91z"></path>
<path fill="#fff" style="fill: var(--color1, #fff)" opacity="0.14" d="M20.638 25.577l15.891-5.612-2.441-6.91-15.891 5.612 2.44 6.91z"></path>
<path fill="#fff" style="fill: var(--color1, #fff)" opacity="0.14" d="M2.499 31.983l15.891-5.612-2.441-6.91-15.891 5.612 2.44 6.91z"></path>
</symbol>
<symbol id="icon-star-feedback" viewBox="0 0 33 32">
<path d="M16.696 0l3.905 12.017h12.636l-10.222 7.427 3.905 12.017-10.222-7.427-10.222 7.427 3.905-12.017-10.222-7.427h12.636l3.905-12.017z"></path>
</symbol>
<symbol id="icon-arrow-left-solid" viewBox="0 0 40 32">
<path d="M3.234 14.234c-0.977 0.977-0.977 2.563 0 3.539l12.5 12.5c0.977 0.977 2.563 0.977 3.539 0s0.977-2.562 0-3.539l-8.242-8.234h23.969c1.383 0 2.5-1.117 2.5-2.5s-1.117-2.5-2.5-2.5h-23.961l8.227-8.234c0.977-0.977 0.977-2.563 0-3.539s-2.563-0.977-3.539 0l-12.5 12.5 0.008 0.008z"></path>
</symbol>
<symbol id="icon-arrow-right-solid" viewBox="0 0 40 32">
<path d="M36.766 17.766c0.977-0.977 0.977-2.563 0-3.539l-12.5-12.5c-0.977-0.977-2.562-0.977-3.539 0s-0.977 2.563 0 3.539l8.242 8.234h-23.969c-1.383 0-2.5 1.117-2.5 2.5s1.117 2.5 2.5 2.5h23.961l-8.227 8.234c-0.977 0.977-0.977 2.562 0 3.539s2.562 0.977 3.539 0l12.5-12.5-0.008-0.008z"></path>
</symbol>
<symbol id="icon-arrow-sown-solid" viewBox="0 0 26 32">
<path fill="#fff" style="fill: var(--color1, #fff)" d="M14.213 2.587c-0.781-0.781-2.050-0.781-2.831 0l-10 10c-0.781 0.781-0.781 2.050 0 2.831s2.050 0.781 2.831 0l6.587-6.594v19.175c0 1.106 0.894 2 2 2s2-0.894 2-2v-19.169l6.588 6.581c0.781 0.781 2.050 0.781 2.831 0s0.781-2.050 0-2.831l-10-10-0.006 0.006z"></path>
</symbol>
<symbol id="icon-inst-yan" viewBox="0 0 30 32">
<path d="M15.4 0.6c-4.074 0-4.585 0.017-6.185 0.090-1.597 0.073-2.687 0.326-3.641 0.697-0.986 0.383-1.823 0.896-2.657 1.73s-1.347 1.67-1.73 2.657c-0.371 0.954-0.624 2.045-0.697 3.641-0.073 1.6-0.090 2.111-0.090 6.185s0.017 4.585 0.090 6.184c0.073 1.596 0.326 2.687 0.697 3.641 0.383 0.986 0.896 1.823 1.73 2.657s1.67 1.347 2.657 1.73c0.954 0.371 2.045 0.624 3.641 0.697 1.6 0.073 2.111 0.090 6.185 0.090s4.585-0.017 6.184-0.090c1.597-0.073 2.687-0.326 3.641-0.697 0.986-0.383 1.823-0.896 2.657-1.73s1.347-1.671 1.73-2.657c0.371-0.954 0.624-2.044 0.697-3.641 0.073-1.6 0.090-2.111 0.090-6.184s-0.017-4.585-0.090-6.185c-0.073-1.597-0.326-2.687-0.697-3.641-0.383-0.986-0.896-1.823-1.73-2.657s-1.67-1.347-2.657-1.73c-0.954-0.371-2.044-0.624-3.641-0.697-1.6-0.073-2.111-0.090-6.184-0.090zM15.4 3.302c4.005 0 4.479 0.015 6.061 0.087 1.463 0.067 2.257 0.311 2.785 0.516 0.7 0.272 1.2 0.597 1.725 1.122s0.85 1.025 1.122 1.725c0.205 0.529 0.45 1.323 0.516 2.785 0.072 1.582 0.088 2.056 0.088 6.061s-0.015 4.48-0.088 6.061c-0.067 1.462-0.311 2.257-0.516 2.785-0.272 0.7-0.597 1.2-1.122 1.725s-1.024 0.85-1.725 1.122c-0.528 0.205-1.323 0.45-2.785 0.516-1.581 0.072-2.056 0.088-6.061 0.088s-4.48-0.015-6.061-0.088c-1.463-0.067-2.257-0.311-2.785-0.516-0.7-0.272-1.2-0.597-1.725-1.122s-0.85-1.024-1.122-1.725c-0.205-0.529-0.45-1.323-0.516-2.785-0.072-1.582-0.087-2.056-0.087-6.061s0.015-4.48 0.087-6.061c0.067-1.463 0.311-2.257 0.516-2.785 0.272-0.7 0.597-1.2 1.122-1.725s1.025-0.85 1.725-1.122c0.529-0.205 1.323-0.45 2.785-0.516 1.582-0.072 2.056-0.087 6.061-0.087z"></path>
<path d="M15.401 20.6c-2.761 0-5-2.239-5-5s2.239-5 5-5c2.761 0 5 2.239 5 5s-2.239 5-5 5zM15.401 7.897c-4.254 0-7.703 3.449-7.703 7.703s3.449 7.703 7.703 7.703c4.254 0 7.703-3.448 7.703-7.703s-3.449-7.703-7.703-7.703zM25.208 7.593c0 0.994-0.806 1.8-1.8 1.8s-1.8-0.806-1.8-1.8c0-0.994 0.806-1.8 1.8-1.8s1.8 0.806 1.8 1.8z"></path>
</symbol>
<symbol id="icon-google" viewBox="0 0 32 32">
<path d="M31.429 16.932c0 8.803-6.127 15.068-15.176 15.068-8.675 0-15.681-6.893-15.681-15.429s7.006-15.429 15.681-15.429c4.224 0 7.777 1.524 10.515 4.038l-4.268 4.038c-5.583-5.3-15.966-1.319-15.966 7.353 0 5.381 4.369 9.742 9.719 9.742 6.209 0 8.536-4.38 8.903-6.651h-8.903v-5.307h14.929c0.145 0.79 0.247 1.549 0.247 2.576z"></path>
</symbol>
<symbol id="icon-burger-menu" viewBox="0 0 32 32">
<path fill="#fff" style="fill: var(--color1, #fff)" d="M7.273 9.939c0-0.67 0.542-1.212 1.212-1.212h14.545c0.67 0 1.212 0.542 1.212 1.212s-0.542 1.212-1.212 1.212h-14.545c-0.67 0-1.212-0.542-1.212-1.212zM7.273 16c0-0.67 0.542-1.212 1.212-1.212h14.545c0.67 0 1.212 0.542 1.212 1.212s-0.542 1.212-1.212 1.212h-14.545c-0.67 0-1.212-0.542-1.212-1.212zM24.242 22.061c0 0.67-0.542 1.212-1.212 1.212h-14.545c-0.67 0-1.212-0.542-1.212-1.212s0.542-1.212 1.212-1.212h14.545c0.67 0 1.212 0.542 1.212 1.212z"></path>
</symbol>
</svg>
